<?xml version="1.0" standalone="no"?>
<!DOCTYPE svg PUBLIC "-//W3C//DTD SVG 1.1//EN"
"http://www.w3.org/Graphics/SVG/1.1/DTD/svg11.dtd">
<!-- Creator: fig2dev Version 3.2 Patchlevel 5e -->
<!-- CreationDate: Thu May 31 08:59:22 2018 -->
<!-- Magnification: 1.050 -->
<svg	xmlns="http://www.w3.org/2000/svg"
	xmlns:xlink="http://www.w3.org/1999/xlink"
	width="7.2in" height="7.2in"
	viewBox="415 415 8617 8617">
<g style="stroke-width:.025in; fill:none">

<!-- Line -->
<polyline points="4724,6141
4722,6141
4717,6141
4707,6141
4692,6140
4671,6140
4644,6139
4611,6138
4571,6137
4524,6135
4474,6133
4419,6131
4362,6128
4302,6125
4241,6121
4180,6118
4120,6114
4060,6110
4004,6106
3948,6100
3896,6095
3845,6090
3797,6083
3751,6077
3708,6071
3666,6064
3627,6055
3589,6047
3552,6038
3518,6029
3483,6018
3450,6008
3418,5996
3385,5984
3352,5970
3318,5955
3285,5940
3252,5923
3218,5906
3185,5888
3151,5870
3118,5850
3084,5832
3049,5812
3016,5792
2981,5771
2948,5751
2913,5731
2879,5711
2845,5691
2811,5671
2779,5653
2745,5635
2712,5618
2681,5602
2648,5587
2618,5573
2587,5561
2558,5549
2529,5540
2499,5531
2471,5524
2444,5519
2416,5514
2389,5512
2362,5511
2334,5512
2307,5514
2280,5519
2253,5524
2225,5531
2198,5541
2171,5551
2142,5563
2115,5576
2088,5592
2060,5609
2034,5627
2008,5647
1982,5668
1956,5690
1933,5713
1910,5736
1888,5761
1867,5787
1847,5814
1829,5840
1813,5867
1797,5895
1783,5922
1772,5950
1761,5977
1752,6005
1744,6032
1739,6059
1735,6087
1733,6114
1732,6141
1733,6169
1735,6196
1739,6223
1744,6250
1752,6278
1761,6305
1772,6332
1783,6361
1797,6388
1813,6415
1829,6443
1847,6469
1867,6495
1888,6521
1910,6546
1933,6570
1956,6593
1982,6615
2008,6636
2034,6656
2060,6674
2088,6690
2115,6706
2142,6720
2171,6731
2198,6742
2225,6751
2253,6759
2280,6764
2307,6768
2334,6770
2362,6771
2389,6770
2416,6768
2444,6764
2471,6759
2499,6751
2529,6743
2558,6733
2587,6722
2618,6709
2648,6696
2681,6681
2712,6664
2745,6647
2779,6629
2811,6612
2845,6592
2879,6572
2913,6552
2948,6532
2981,6512
3016,6491
3049,6471
3084,6451
3118,6432
3151,6412
3185,6394
3218,6376
3252,6360
3285,6343
3318,6327
3352,6312
3385,6299
3418,6286
3450,6275
3483,6264
3518,6254
3552,6244
3589,6236
3627,6227
3666,6219
3708,6212
3751,6205
3797,6199
3845,6193
3896,6187
3948,6182
4004,6177
4060,6173
4120,6169
4180,6164
4241,6161
4302,6157
4362,6155
4419,6152
4474,6150
4524,6148
4571,6145
4611,6144
4644,6143
4671,6142
4692,6142
4707,6141
4717,6141
4722,6141
4724,6141
" style="stroke:#000000;stroke-width:300;
stroke-linejoin:bevel; stroke-linecap:butt;
"/>
<!-- Line -->
<polyline points="3779,6141
3781,6141
3784,6141
3792,6141
3802,6140
3818,6140
3839,6139
3864,6138
3895,6137
3930,6135
3969,6133
4012,6131
4058,6128
4107,6125
4157,6121
4207,6118
4259,6114
4310,6110
4361,6106
4412,6100
4461,6095
4512,6090
4560,6083
4608,6077
4657,6071
4705,6064
4753,6055
4803,6047
4852,6038
4902,6029
4954,6018
5006,6008
5061,5996
5118,5984
5159,5974
5201,5965
5244,5955
5288,5945
5333,5933
5379,5922
5426,5910
5475,5898
5525,5885
5575,5871
5627,5858
5679,5843
5733,5827
5787,5813
5843,5796
5900,5779
5956,5761
6014,5743
6072,5725
6131,5707
6190,5687
6248,5667
6307,5646
6367,5625
6426,5604
6485,5582
6543,5560
6601,5538
6659,5514
6716,5491
6771,5467
6827,5444
6881,5420
6935,5396
6987,5372
7039,5346
7088,5322
7138,5297
7185,5272
7232,5247
7277,5222
7321,5196
7363,5170
7405,5145
7445,5119
7484,5092
7522,5066
7559,5039
7600,5007
7638,4976
7676,4943
7713,4911
7749,4877
7783,4843
7817,4808
7849,4772
7881,4735
7912,4698
7942,4660
7970,4621
7997,4582
8025,4542
8050,4501
8074,4460
8097,4419
8120,4377
8141,4335
8161,4293
8180,4251
8198,4209
8215,4167
8229,4125
8244,4083
8258,4043
8269,4002
8281,3961
8291,3921
8300,3882
8308,3843
8316,3805
8322,3767
8327,3731
8332,3695
8337,3660
8340,3626
8342,3592
8344,3560
8345,3527
8346,3496
8346,3464
8346,3421
8344,3379
8342,3337
8339,3296
8334,3255
8329,3215
8323,3174
8317,3134
8308,3096
8300,3056
8290,3017
8281,2978
8269,2940
8258,2903
8245,2867
8233,2831
8219,2796
8205,2763
8192,2730
8177,2699
8162,2668
8148,2639
8133,2611
8118,2583
8103,2557
8089,2532
8074,2508
8060,2485
8046,2462
8031,2440
8015,2417
8000,2395
7984,2372
7968,2350
7951,2329
7934,2307
7917,2285
7898,2263
7879,2242
7859,2220
7839,2199
7817,2178
7796,2157
7773,2136
7750,2116
7727,2096
7701,2076
7677,2057
7652,2038
7626,2020
7600,2003
7573,1986
7546,1969
7518,1952
7490,1937
7461,1921
7432,1905
7401,1889
7378,1878
7354,1866
7330,1855
7304,1843
7278,1832
7251,1820
7223,1808
7193,1797
7163,1784
7131,1773
7098,1760
7064,1749
7028,1736
6993,1723
6955,1712
6917,1699
6877,1688
6836,1676
6795,1664
6753,1652
6710,1641
6666,1630
6622,1619
6577,1608
6531,1598
6486,1588
6438,1579
6392,1569
6345,1561
6298,1551
6249,1544
6202,1535
6154,1528
6104,1521
6055,1514
6006,1507
5955,1502
5905,1496
5864,1491
5823,1487
5780,1483
5737,1479
5694,1476
5649,1472
5604,1469
5558,1467
5510,1465
5462,1463
5413,1461
5362,1460
5312,1460
5259,1460
5207,1460
5153,1461
5099,1463
5044,1465
4988,1468
4932,1471
4875,1476
4817,1481
4760,1487
4702,1493
4644,1501
4585,1508
4528,1518
4469,1527
4411,1537
4352,1548
4295,1560
4237,1573
4180,1586
4123,1601
4067,1616
4011,1632
3956,1649
3902,1666
3847,1685
3795,1703
3741,1723
3689,1744
3637,1766
3586,1790
3535,1813
3485,1837
3435,1863
3385,1889
3339,1914
3294,1941
3249,1968
3203,1997
3158,2027
3111,2057
3065,2088
3020,2120
2974,2154
2928,2188
2881,2224
2835,2261
2789,2299
2743,2337
2697,2376
2650,2416
2604,2457
2558,2499
2513,2542
2467,2585
2422,2629
2376,2674
2332,2719
2288,2764
2245,2810
2202,2856
2160,2902
2118,2949
2077,2995
2037,3041
1998,3087
1960,3133
1923,3179
1886,3224
1851,3269
1817,3314
1783,3357
1752,3401
1720,3444
1691,3486
1661,3527
1634,3568
1608,3609
1582,3648
1558,3687
1534,3724
1512,3761
1491,3798
1471,3834
1453,3868
1434,3903
1417,3937
1393,3987
1370,4036
1350,4083
1331,4131
1315,4177
1299,4222
1287,4266
1275,4310
1266,4353
1257,4396
1251,4437
1247,4478
1244,4518
1243,4558
1241,4596
1244,4634
1246,4669
1250,4704
1255,4739
1261,4771
1269,4803
1277,4833
1287,4862
1296,4891
1307,4918
1318,4943
1330,4969
1341,4993
1354,5015
1366,5037
1379,5058
1392,5079
1404,5099
1417,5118
1434,5143
1450,5167
1467,5190
1485,5214
1503,5237
1521,5261
1540,5285
1560,5308
1580,5331
1600,5354
1620,5377
1643,5399
1664,5422
1687,5443
1709,5465
1732,5486
1755,5506
1778,5526
1801,5546
1824,5565
1848,5583
1871,5601
1896,5618
1919,5635
1943,5652
1968,5669
1990,5683
2012,5698
2035,5713
2059,5728
2083,5742
2109,5758
2135,5774
2161,5791
2188,5807
2217,5824
2245,5842
2274,5860
2303,5879
2332,5897
2362,5916
2391,5935
2420,5954
2450,5974
2478,5994
2507,6014
2535,6034
2562,6054
2588,6075
2615,6095
2640,6115
2664,6136
2688,6157
2711,6177
2733,6199
2755,6220
2776,6242
2797,6264
2818,6287
2839,6311
2859,6337
2879,6362
2899,6388
2919,6415
2939,6443
2958,6472
2977,6501
2996,6531
3014,6562
3032,6593
3048,6624
3065,6657
3081,6688
3097,6721
3111,6752
3126,6785
3139,6816
3151,6848
3164,6878
3174,6909
3185,6939
3194,6970
3204,6999
3212,7028
3220,7057
3228,7086
3235,7117
3243,7148
3249,7180
3255,7211
3260,7244
3266,7276
3270,7309
3274,7342
3277,7377
3279,7411
3282,7445
3283,7479
3285,7513
3285,7548
3285,7582
3283,7615
3282,7648
3279,7679
3277,7711
3274,7741
3270,7771
3266,7800
3260,7827
3255,7854
3249,7880
3243,7905
3235,7929
3228,7952
3218,7979
3208,8005
3196,8031
3185,8056
3170,8082
3155,8108
3139,8135
3120,8162
3099,8192
3077,8221
3053,8253
3026,8284
3000,8317
2973,8348
2945,8380
2920,8408
2897,8434
2877,8456
2860,8474
2849,8488
2840,8496
2836,8501
2834,8503
" style="stroke:#000000;stroke-width:300;
stroke-linejoin:bevel; stroke-linecap:butt;
"/>
</g>
</svg>
