<?xml version="1.0" standalone="no"?>
<!DOCTYPE svg PUBLIC "-//W3C//DTD SVG 1.1//EN"
"http://www.w3.org/Graphics/SVG/1.1/DTD/svg11.dtd">
<!-- Creator: fig2dev Version 3.2 Patchlevel 5e -->
<!-- CreationDate: Wed May 30 20:15:28 2018 -->
<!-- Magnification: 1.050 -->
<svg	xmlns="http://www.w3.org/2000/svg"
	xmlns:xlink="http://www.w3.org/1999/xlink"
	width="7.2in" height="7.2in"
	viewBox="415 415 8617 8617">
<g style="stroke-width:.025in; fill:none">

<!-- Line -->
<polyline points="944,1417
945,1417
948,1419
952,1421
958,1424
967,1429
981,1436
998,1445
1020,1457
1046,1470
1078,1487
1114,1507
1158,1529
1206,1555
1259,1584
1319,1616
1384,1651
1456,1690
1533,1732
1616,1776
1704,1824
1797,1875
1895,1927
1997,1983
2103,2041
2214,2101
2327,2164
2443,2228
2561,2295
2682,2361
2805,2429
2928,2498
3051,2569
3176,2639
3301,2710
3425,2781
3549,2852
3672,2923
3794,2994
3913,3064
4031,3133
4148,3203
4261,3271
4373,3338
4482,3405
4590,3470
4693,3535
4794,3600
4893,3661
4988,3723
5081,3784
5170,3843
5257,3902
5341,3959
5422,4015
5500,4071
5575,4124
5647,4178
5717,4230
5783,4282
5847,4332
5908,4383
5967,4432
6023,4480
6076,4528
6128,4575
6176,4621
6222,4667
6266,4713
6308,4759
6347,4803
6385,4848
6419,4892
6453,4936
6485,4979
6514,5023
6541,5066
6567,5109
6592,5153
6614,5196
6640,5252
6664,5309
6686,5364
6705,5420
6722,5477
6735,5532
6747,5589
6756,5646
6764,5702
6768,5759
6770,5816
6770,5874
6768,5930
6763,5987
6755,6045
6746,6101
6734,6158
6721,6215
6704,6271
6686,6328
6665,6384
6643,6439
6618,6494
6592,6549
6563,6603
6532,6657
6499,6709
6466,6761
6429,6812
6391,6862
6352,6912
6310,6960
6268,7006
6224,7053
6179,7098
6133,7141
6085,7183
6036,7224
5987,7262
5935,7300
5884,7337
5833,7372
5779,7405
5725,7437
5672,7466
5617,7495
5563,7522
5507,7547
5451,7570
5396,7591
5340,7611
5285,7630
5228,7646
5172,7660
5116,7674
5060,7685
5003,7694
4948,7702
4892,7709
4835,7713
4780,7715
4724,7716
4668,7715
4613,7713
4556,7709
4500,7702
4445,7694
4388,7685
4332,7674
4276,7660
4220,7646
4163,7630
4108,7611
4052,7591
3996,7570
3941,7547
3885,7522
3830,7495
3776,7466
3722,7437
3669,7405
3615,7372
3564,7337
3512,7300
3461,7262
3412,7224
3363,7183
3315,7141
3269,7098
3224,7053
3180,7006
3138,6960
3096,6912
3057,6862
3019,6812
2982,6761
2949,6709
2916,6657
2885,6603
2856,6549
2830,6494
2805,6439
2783,6384
2762,6328
2744,6271
2727,6215
2713,6158
2702,6101
2692,6045
2685,5987
2680,5930
2678,5874
2678,5816
2680,5759
2684,5702
2691,5646
2701,5589
2712,5532
2726,5477
2743,5420
2762,5364
2784,5309
2808,5252
2834,5196
2856,5153
2880,5109
2907,5066
2934,5023
2963,4979
2995,4936
3028,4892
3063,4848
3101,4803
3140,4759
3182,4713
3226,4667
3272,4621
3320,4575
3372,4528
3425,4480
3481,4432
3540,4383
3601,4332
3665,4282
3731,4230
3801,4178
3872,4124
3948,4071
4026,4015
4107,3959
4191,3902
4278,3843
4367,3784
4459,3723
4555,3661
4654,3600
4754,3535
4858,3470
4965,3405
5075,3338
5187,3271
5300,3203
5417,3133
5534,3064
5654,2994
5776,2923
5899,2852
6023,2781
6146,2710
6271,2639
6396,2569
6520,2498
6643,2429
6766,2361
6887,2295
7005,2228
7121,2164
7234,2101
7344,2041
7450,1983
7553,1927
7651,1875
7743,1824
7832,1776
7914,1732
7992,1690
8064,1651
8129,1616
8188,1584
8242,1555
8290,1529
8333,1507
8370,1487
8402,1470
8428,1457
8450,1445
8467,1436
8480,1429
8490,1424
8496,1421
8500,1419
8502,1417
8503,1417
" style="stroke:#39B7CD;stroke-width:300;
stroke-linejoin:bevel; stroke-linecap:butt;
"/>
</g>
</svg>
